<svg version="1" xmlns="http://www.w3.org/2000/svg" width="481.333" height="481.333" viewBox="0 0 361.000000 361.000000"><path d="M195 46.3c-.3.3-3.6.7-7.5 1.1-8.6.7-12 1.3-21 3.2-7.7 1.6-24.4 6.3-26 7.2-.5.4-1.4.7-2 .8-.5.1-2.3.8-4 1.5-1.6.6-3.4 1.3-4 1.4-.5.2-5 2.2-10 4.6-43.9 21-79.3 56.2-99.7 98.9-9.8 20.4-16.4 43-19.2 65-1.4 11.1-1.5 45-.2 51 .3 1.3.8 4.2 1.1 6.5.5 3.9 5.5 26.8 6 27.3.1.1 2.4-.4 5.1-1.3 7.4-2.2 19.9-5.9 40.9-12 22.7-6.7 34.8-10.3 39.3-11.7 1.8-.5 4.1-1.1 5-1.3 2-.3 2-1.2-.2-12-3.6-17.4-2.1-39.6 4-57.3 13.7-39.9 48.6-69 90.4-75.5 8.6-1.4 25.8-1.5 34-.3 20.1 3 46.8 15.8 59.5 28.5 2.2 2.2 4.5 4 5 4.1.6 0 6-4.8 12-10.6 6.1-5.9 20.8-20.2 32.9-31.8 12-11.6 22.5-21.7 23.3-22.5 1.2-1.1.4-2.2-4.9-7.3-22.6-21.4-49.2-37.3-78.3-47-10.3-3.4-26.5-7.3-34.5-8.3-3-.4-6.4-.9-7.5-1.2-2.7-.6-39-1.5-39.5-1z"/><path d="M157.5 172.1c-8.2 5.4-15 10.5-14.9 11.2.1 1.5 12.5 20.7 13.3 20.7.3 0 7.7-4.6 16.3-10.3l15.8-10.2-7.1-10.8c-3.8-5.9-7.3-10.7-7.7-10.6-.4 0-7.4 4.5-15.7 10zM219.5 185.6c-1.6.3-6 1.1-9.7 1.9-40.6 8.9-72 40.9-80.4 82-2.1 10-2.3 28.9-.4 37.8l1.1 5.5 102-.1c56.1 0 102.2-.3 102.4-.6 1.8-3.1 2.7-30.3 1.2-39.6-2.1-13-8.1-28-16.2-40.7-5.6-8.6-19.5-22.8-28-28.5-11.5-7.7-26.4-13.9-41-16.8-3.9-.8-27.1-1.5-31-.9zm-21 92.4c3 1.1 6.5 6.5 6.5 10.1 0 7.8-4.7 12.4-12.7 12.4-6.2 0-9.7-2.7-11.4-8.8-1.2-4.7.1-9 4-12.4 3.8-3.3 7.4-3.7 13.6-1.3zm112.1 2c2.9 1.6 5.4 5.8 5.4 9.2 0 3.5-3.5 8.4-6.7 9.5-1.6.5-19.7.9-42.5.9l-39.6-.1-2.6-2.4c-4.8-4.5-5-11.6-.5-15.7 2.9-2.7 7.1-2.9 47.1-2.8 29.5 0 37.3.3 39.4 1.4z"/></svg>