<svg width="66" height="62" viewBox="0 0 66 62" fill="none" xmlns="http://www.w3.org/2000/svg">
<path d="M38.6653 52.9276L39.0579 54.1677L15.2945 61.6909L14.9019 60.4508L16.4102 59.9733C17.7285 59.5559 18.7156 58.9853 19.3714 58.2614C19.8534 57.7647 20.1305 57.0869 20.2028 56.2282C20.2788 55.6141 19.956 54.1675 19.2345 51.8883L9.76948 21.9914C9.03379 19.6676 8.45108 18.2541 8.02137 17.751C7.59166 17.2479 6.92974 16.9043 6.03562 16.7202C5.15678 16.5068 4.08054 16.6017 2.8069 17.0049L1.29865 17.4824L0.906044 16.2423L24.6694 8.71908L25.062 9.9592L23.5537 10.4367C22.2354 10.8541 21.2483 11.4247 20.5925 12.1486C20.1106 12.6453 19.8223 13.3266 19.7276 14.1924C19.6516 14.8065 19.9744 16.2531 20.6959 18.5323L30.1609 48.4292C30.8966 50.753 31.4793 52.1665 31.909 52.6696C32.3611 53.1657 33.0265 53.5204 33.9054 53.7339C34.7995 53.9179 35.8834 53.8083 37.157 53.4051L38.6653 52.9276ZM65.4116 44.46L65.8042 45.7002L42.0409 53.2233L41.6483 51.9832L43.1565 51.5057C44.4748 51.0884 45.4619 50.5177 46.1178 49.7938C46.5997 49.2971 46.8768 48.6193 46.9491 47.7606C47.0251 47.1465 46.7023 45.6999 45.9808 43.4208L36.5158 13.5239C35.7801 11.2001 35.1974 9.78657 34.7677 9.28343C34.338 8.78029 33.6761 8.4367 32.7819 8.25267C31.9031 8.03923 30.8269 8.13411 29.5532 8.53733L28.045 9.01482L27.6524 7.77471L51.4157 0.251518L51.8083 1.49164L50.3001 1.96913C48.9817 2.3865 47.9947 2.95713 47.3388 3.68102C46.8569 4.17777 46.5686 4.85905 46.4739 5.72488C46.3979 6.33896 46.7207 7.78557 47.4422 10.0647L56.9072 39.9616C57.6429 42.2854 58.2256 43.6989 58.6554 44.202C59.1074 44.6981 59.7729 45.0529 60.6517 45.2663C61.5458 45.4503 62.6297 45.3408 63.9033 44.9375L65.4116 44.46Z" fill="#F2E6CC" fill-opacity="0.7"/>
</svg>
