<svg width="56" height="54" viewBox="0 0 56 54" fill="none" xmlns="http://www.w3.org/2000/svg">
<path d="M52.2066 24.0374L55.5481 40.5325L15.194 53.3081L14.8014 52.068L16.3096 51.5905C17.628 51.1732 18.615 50.6025 19.2709 49.8786C19.7528 49.3819 20.0299 48.7041 20.1022 47.8454C20.1782 47.2313 19.8555 45.7847 19.1339 43.5056L9.66893 13.6087C8.93324 11.2849 8.35053 9.87137 7.92082 9.36823C7.49111 8.86509 6.82919 8.5215 5.93507 8.33748C5.05623 8.12403 3.97999 8.21891 2.70635 8.62213L1.1981 9.09962L0.805494 7.85951L25.0381 0.187766L25.4307 1.42788L23.4532 2.05393C22.1349 2.4713 21.1478 3.04193 20.4919 3.76583C20.01 4.26257 19.7217 4.94386 19.6271 5.80968C19.5511 6.42376 19.8738 7.87037 20.5954 10.1495L29.7633 39.1079C30.499 41.4318 31.1034 42.8752 31.5767 43.4383C32.0429 43.9791 32.7166 44.2821 33.5977 44.3473C34.2199 44.3716 35.6036 44.0441 37.7487 43.365L41.5361 42.166C43.9493 41.402 45.8259 40.3408 47.1659 38.9824C48.5059 37.624 49.4668 35.8447 50.0486 33.6446C50.6528 31.4374 50.9141 28.3801 50.8324 24.4725L52.2066 24.0374Z" fill="#F2E6CC" fill-opacity="0.7"/>
</svg>
