<svg width="361" height="269" viewBox="0 0 361 269" fill="none" xmlns="http://www.w3.org/2000/svg">
<path d="M361 63.829C328.317 30.1357 285.258 8.35108 238.708 1.95777C192.157 -4.43553 144.802 4.93172 104.215 28.562C63.6272 52.1922 32.15 88.7209 14.8159 132.308C-2.51829 175.895 -4.7085 224.024 8.5953 269L101.147 241.734C93.9545 217.419 95.1384 191.399 104.51 167.835C113.881 144.27 130.898 124.522 152.841 111.747C174.784 98.9716 200.385 93.9074 225.551 97.3638C250.718 100.82 273.997 112.598 291.666 130.813L361 63.829Z" fill="#F2E6CC" fill-opacity="0.7"/>
<path fill-rule="evenodd" clip-rule="evenodd" d="M334.374 266.754C336.073 259.283 336.97 251.508 336.97 243.524C336.97 185.79 290.072 138.987 232.222 138.987C174.371 138.987 127.473 185.79 127.473 243.524C127.473 251.508 128.37 259.283 130.069 266.754H334.374ZM205.065 242.75C205.065 249.592 199.506 255.139 192.65 255.139C185.793 255.139 180.235 249.592 180.235 242.75C180.235 235.907 185.793 230.36 192.65 230.36C199.506 230.36 205.065 235.907 205.065 242.75ZM231.058 232.683C225.273 232.683 220.583 237.363 220.583 243.137C220.583 248.91 225.273 253.591 231.058 253.591H305.545C311.33 253.591 316.02 248.91 316.02 243.137C316.02 237.363 311.33 232.683 305.545 232.683H231.058Z" fill="#F2E6CC" fill-opacity="0.7"/>
<path d="M173.708 115.62L141.44 136.664L155.726 158.482L187.995 137.438L173.708 115.62Z" fill="#F2E6CC" fill-opacity="0.7"/>
</svg>
